<?xml version="1.0" encoding="UTF-8" standalone="no"?>
<svg
   xmlns:dc="http://purl.org/dc/elements/1.1/"
   xmlns:cc="http://creativecommons.org/ns#"
   xmlns:rdf="http://www.w3.org/1999/02/22-rdf-syntax-ns#"
   xmlns:svg="http://www.w3.org/2000/svg"
   xmlns="http://www.w3.org/2000/svg"
   viewBox="0 0 608.2373 175.15199"
   height="175.15199"
   width="608.2373"
   xml:space="preserve"
   id="svg2"
   version="1.1"><metadata
     id="metadata8"><rdf:RDF><cc:Work
         rdf:about=""><dc:format>image/svg+xml</dc:format><dc:type
           rdf:resource="http://purl.org/dc/dcmitype/StillImage" /></cc:Work></rdf:RDF></metadata><defs
     id="defs6"><clipPath
       id="clipPath18"
       clipPathUnits="userSpaceOnUse"><path
         id="path16"
         d="M 0,131.364 H 456.178 V 0 H 0 Z" /></clipPath></defs><g
     transform="matrix(1.3333333,0,0,-1.3333333,0,175.152)"
     id="g10"><g
       id="g12"><g
         clip-path="url(#clipPath18)"
         id="g14"><g
           transform="translate(63.28,100.5854)"
           id="g20"><path
             id="path22"
             style="fill:#231f20;fill-opacity:1;fill-rule:nonzero;stroke:none"
             d="m 0,0 h -10.696 l 0.008,0.45 h 41.506 l 0.046,-0.298 c -1.091,-0.101 -2.181,-0.202 -3.272,-0.303 -1.108,-0.102 -2.216,-0.204 -3.506,-0.323 0.799,-2.044 1.551,-3.978 2.31,-5.908 5.754,-14.625 11.497,-29.254 17.276,-43.868 1.083,-2.74 1.115,-5.426 0.036,-8.148 -1.611,-4.062 -3.216,-8.128 -4.829,-12.189 -0.098,-0.247 -0.246,-0.474 -0.542,-1.035 -1.795,4.336 -3.516,8.381 -5.151,12.461 -7.265,18.128 -14.494,36.269 -21.78,54.389 -0.53,1.317 -1.272,2.605 -2.172,3.697 C 8.711,-0.44 7.679,-0.225 6.565,0.336 6.52,-0.672 6.479,-1.164 6.479,-1.656 6.477,-17.715 6.541,-33.776 6.427,-49.834 6.406,-52.821 6.09,-55.933 5.191,-58.758 c -1.978,-6.222 -6.076,-10.581 -12.637,-12.2 -1.077,-0.265 -2.213,-0.294 -3.323,-0.422 -0.158,-0.019 -0.323,0.025 -0.792,0.068 0.467,0.25 0.647,0.377 0.847,0.45 2.8,1.027 4.089,3.201 4.218,6.008 0.207,4.508 0.298,9.023 0.31,13.535 0.033,12.242 0.015,24.485 -0.018,36.726 -0.016,5.689 1.567,10.64 6.396,14.185 C 0.128,-0.272 0.064,-0.136 0,0" /></g><g
           transform="translate(135.655,28.954)"
           id="g24"><path
             id="path26"
             style="fill:#231f20;fill-opacity:1;fill-rule:nonzero;stroke:none"
             d="m 0,0 c -0.841,1.862 -1.597,3.388 -2.23,4.961 -8.212,20.394 -16.444,40.781 -24.568,61.21 -1.237,3.11 -2.948,5.329 -6.43,5.77 -0.171,0.022 -0.334,0.11 -0.809,0.272 h 26.45 c 0.013,-0.15 0.026,-0.3 0.04,-0.451 -2.145,-0.173 -4.29,-0.345 -6.673,-0.537 1.105,-2.907 2.112,-5.641 3.18,-8.351 C -5.581,49.038 -0.141,35.195 5.389,21.388 6.572,18.433 6.598,15.711 5.247,12.792 3.608,9.253 2.267,5.576 0.797,1.96 0.578,1.42 0.358,0.88 0,0" /></g><g
           transform="translate(170.2898,101.0903)"
           id="g28"><path
             id="path30"
             style="fill:#231f20;fill-opacity:1;fill-rule:nonzero;stroke:none"
             d="m 0,0 c -5.345,-0.871 -7.348,-4.562 -8.984,-8.676 -2.988,-7.512 -6.035,-15.001 -9.083,-22.49 -0.518,-1.272 -1.167,-2.491 -1.936,-3.712 0.658,2.728 -0.448,4.946 -1.853,7.037 -3.086,4.59 -3.451,9.543 -1.467,14.51 1.331,3.333 3.19,6.498 5.135,9.531 1.826,2.848 4.814,4.168 8.101,4.691 C -6.824,1.411 -3.609,1.107 0,0" /></g><g
           transform="translate(43.7824,29.3701)"
           id="g32"><path
             id="path34"
             style="fill:#231f20;fill-opacity:1;fill-rule:nonzero;stroke:none"
             d="m 0,0 c -7.296,-0.421 -12.849,4.035 -14.114,10.469 -0.691,3.51 0.091,6.505 3.143,8.576 3.145,2.135 6.475,1.788 9.646,0.103 C 1.327,17.74 1.932,14.46 0.276,11.596 -0.281,10.632 -0.941,9.728 -1.507,8.769 -3.654,5.129 -3.471,3.634 -0.563,0.646 -0.383,0.46 -0.222,0.256 0,0" /></g><g
           transform="translate(174.7937,38.2714)"
           id="g36"><path
             id="path38"
             style="fill:#231f20;fill-opacity:1;fill-rule:nonzero;stroke:none"
             d="M 0,0 0.036,-0.146 -0.109,-0.158 C -0.401,-0.175 -0.612,-0.26 -0.742,-0.413 -0.871,-0.567 -0.937,-0.812 -0.937,-1.144 v -3.611 c 0,-0.688 -0.044,-1.278 -0.133,-1.768 -0.089,-0.491 -0.233,-0.89 -0.431,-1.199 -0.199,-0.307 -0.455,-0.532 -0.767,-0.674 -0.312,-0.142 -0.691,-0.213 -1.136,-0.213 -0.413,0 -0.765,0.074 -1.052,0.219 -0.288,0.147 -0.46,0.34 -0.517,0.583 -0.04,0.163 -0.01,0.292 0.092,0.39 0.101,0.098 0.253,0.146 0.456,0.146 0.145,0 0.273,-0.048 0.383,-0.146 0.109,-0.098 0.183,-0.227 0.225,-0.39 0.04,-0.161 0.127,-0.292 0.261,-0.388 0.134,-0.097 0.294,-0.146 0.48,-0.146 0.267,0 0.459,0.187 0.577,0.56 0.118,0.372 0.177,0.996 0.177,1.872 v 4.765 c 0,0.332 -0.065,0.577 -0.195,0.731 -0.129,0.153 -0.34,0.238 -0.632,0.255 l -0.146,0.012 V 0 Z" /></g><g
           transform="translate(202.7458,38.2714)"
           id="g40"><path
             id="path42"
             style="fill:#231f20;fill-opacity:1;fill-rule:nonzero;stroke:none"
             d="m 0,0 0.012,-0.146 -0.17,-0.012 C -0.482,-0.175 -0.717,-0.272 -0.863,-0.45 -1.009,-0.629 -1.082,-0.904 -1.082,-1.277 v -4.79 c 0,-0.373 -0.06,-0.711 -0.177,-1.016 -0.116,-0.304 -0.302,-0.563 -0.553,-0.778 -0.251,-0.215 -0.578,-0.381 -0.978,-0.498 -0.402,-0.118 -0.886,-0.176 -1.454,-0.176 -0.591,0 -1.093,0.068 -1.507,0.206 -0.414,0.138 -0.752,0.33 -1.015,0.578 -0.264,0.246 -0.456,0.547 -0.578,0.898 -0.121,0.354 -0.182,0.745 -0.182,1.174 v 4.535 c 0,0.332 -0.065,0.577 -0.195,0.731 -0.13,0.153 -0.34,0.238 -0.632,0.255 l -0.146,0.012 V 0 h 3.295 V -0.146 L -5.35,-0.158 c -0.292,-0.017 -0.503,-0.102 -0.632,-0.255 -0.13,-0.154 -0.195,-0.399 -0.195,-0.731 v -4.801 c 0,-0.642 0.164,-1.157 0.492,-1.545 0.329,-0.389 0.874,-0.583 1.636,-0.583 0.462,0 0.853,0.052 1.174,0.158 0.32,0.104 0.581,0.25 0.783,0.436 0.203,0.187 0.351,0.413 0.444,0.675 0.093,0.265 0.14,0.558 0.14,0.882 v 4.645 c 0,0.373 -0.077,0.648 -0.231,0.827 -0.154,0.178 -0.401,0.275 -0.741,0.292 l -0.183,0.012 V 0 Z" /></g><g
           transform="translate(227.4641,35.7177)"
           id="g44"><path
             id="path46"
             style="fill:#231f20;fill-opacity:1;fill-rule:nonzero;stroke:none"
             d="m 0,0 -0.109,0.012 c -0.058,0.154 -0.12,0.323 -0.189,0.505 -0.069,0.182 -0.136,0.35 -0.201,0.504 -0.113,0.308 -0.288,0.57 -0.522,0.785 -0.236,0.214 -0.491,0.35 -0.766,0.407 0,0.008 -0.031,0.016 -0.092,0.023 -0.06,0.009 -0.129,0.017 -0.206,0.026 -0.078,0.008 -0.185,0.016 -0.323,0.023 -0.559,0 -1.009,-0.151 -1.349,-0.455 -0.341,-0.305 -0.511,-0.708 -0.511,-1.21 0,-0.163 0.059,-0.327 0.177,-0.492 0.117,-0.167 0.281,-0.327 0.492,-0.481 0.211,-0.154 0.468,-0.297 0.772,-0.431 0.304,-0.134 0.638,-0.254 1.003,-0.359 0.357,-0.097 0.679,-0.229 0.967,-0.395 0.287,-0.166 0.535,-0.357 0.742,-0.571 0.206,-0.215 0.366,-0.447 0.479,-0.694 0.114,-0.247 0.17,-0.504 0.17,-0.772 0,-0.364 -0.068,-0.695 -0.206,-0.99 -0.138,-0.296 -0.332,-0.55 -0.584,-0.76 -0.251,-0.211 -0.553,-0.373 -0.905,-0.487 -0.353,-0.114 -0.744,-0.169 -1.173,-0.169 -0.276,0 -0.554,0.013 -0.833,0.042 -0.28,0.028 -0.548,0.069 -0.803,0.122 -0.256,0.052 -0.492,0.117 -0.711,0.194 -0.219,0.077 -0.41,0.16 -0.571,0.249 v 2.019 h 0.108 c 0.025,-0.074 0.053,-0.155 0.086,-0.244 0.033,-0.089 0.06,-0.17 0.085,-0.243 0.187,-0.486 0.479,-0.892 0.875,-1.216 0.398,-0.324 0.827,-0.506 1.289,-0.546 0.09,-0.009 0.162,-0.016 0.219,-0.019 0.057,-0.004 0.11,-0.007 0.158,-0.007 h 0.085 c 0.576,0 1.038,0.138 1.386,0.414 0.349,0.277 0.524,0.641 0.524,1.097 0,0.186 -0.059,0.371 -0.177,0.553 -0.117,0.183 -0.284,0.357 -0.499,0.524 -0.215,0.166 -0.474,0.32 -0.778,0.463 -0.304,0.141 -0.638,0.266 -1.003,0.371 -0.348,0.098 -0.667,0.226 -0.955,0.383 -0.287,0.159 -0.532,0.338 -0.734,0.536 -0.203,0.199 -0.359,0.416 -0.469,0.652 -0.11,0.235 -0.164,0.474 -0.164,0.718 0,0.382 0.069,0.731 0.207,1.047 0.138,0.317 0.33,0.587 0.577,0.81 0.247,0.223 0.547,0.396 0.9,0.517 0.352,0.122 0.743,0.184 1.173,0.184 0.397,0 0.811,-0.058 1.241,-0.169 C -0.689,2.356 -0.316,2.206 0,2.019 Z" /></g><g
           transform="translate(247.5608,35.997)"
           id="g48"><path
             id="path50"
             style="fill:#231f20;fill-opacity:1;fill-rule:nonzero;stroke:none"
             d="m 0,0 -0.145,0.013 c 0,0.04 0.01,0.172 0.03,0.394 0.02,0.223 0.04,0.462 0.06,0.718 0.022,0.255 0.039,0.482 0.055,0.684 0.017,0.201 0.029,0.3 0.037,0.3 L 0.049,2.274 H 7.952 L 7.965,2.109 C 7.988,1.797 8.017,1.447 8.05,1.059 8.082,0.669 8.11,0.316 8.135,0 H 8.025 L 7.696,0.778 C 7.535,1.176 7.326,1.465 7.07,1.648 6.815,1.83 6.48,1.921 6.067,1.921 H 4.693 v -6.979 c 0,-0.333 0.066,-0.576 0.195,-0.729 0.13,-0.154 0.341,-0.239 0.633,-0.256 L 5.667,-6.055 V -6.201 H 2.371 v 0.146 l 0.147,0.012 c 0.292,0.017 0.502,0.102 0.631,0.256 0.13,0.153 0.195,0.396 0.195,0.729 V 1.921 H 1.958 C 1.561,1.921 1.235,1.83 0.979,1.648 0.725,1.465 0.507,1.176 0.328,0.778 Z" /></g><g
           transform="translate(311.3928,38.2587)"
           id="g52"><path
             id="path54"
             style="fill:#231f20;fill-opacity:1;fill-rule:nonzero;stroke:none"
             d="M 0,0 -0.012,-0.146 -0.158,-0.158 C -0.45,-0.174 -0.683,-0.262 -0.857,-0.42 -1.031,-0.577 -1.175,-0.819 -1.289,-1.144 l -2.407,-7.525 h -0.353 l 2.347,7.525 c 0.104,0.341 0.109,0.586 0.013,0.737 -0.098,0.149 -0.318,0.233 -0.658,0.249 l -0.328,0.012 V 0 Z m -4.036,-8.669 -2.736,6.614 0.705,2.176 2.674,-6.723 z m -5.86,8.535 -0.026,-0.012 -0.17,-0.012 c -0.592,-0.025 -0.798,-0.308 -0.62,-0.851 l 2.067,-5.715 2.226,6.858 h 0.352 l -2.857,-8.79 h -0.329 l -2.893,7.525 c -0.13,0.332 -0.276,0.576 -0.438,0.731 -0.162,0.153 -0.36,0.238 -0.596,0.254 l -0.109,0.012 v 0.147 h 3.393 z" /></g><g
           transform="translate(340.2082,29.9423)"
           id="g56"><path
             id="path58"
             style="fill:#231f20;fill-opacity:1;fill-rule:nonzero;stroke:none"
             d="M 0,0 V -0.146 H -3.295 V 0 l 0.146,0.012 c 0.292,0.016 0.503,0.101 0.632,0.256 0.13,0.153 0.195,0.396 0.195,0.729 V 4.146 H -6.979 V 0.997 c 0,-0.333 0.065,-0.576 0.195,-0.729 0.13,-0.155 0.34,-0.24 0.632,-0.256 L -6.006,0 V -0.146 H -9.302 V 0 l 0.147,0.012 c 0.292,0.016 0.502,0.101 0.633,0.256 0.128,0.153 0.194,0.396 0.194,0.729 v 6.189 c 0,0.332 -0.066,0.576 -0.194,0.73 -0.131,0.153 -0.341,0.238 -0.633,0.255 l -0.147,0.012 v 0.146 h 3.296 V 8.183 L -6.152,8.171 C -6.444,8.154 -6.654,8.069 -6.784,7.914 -6.914,7.76 -6.979,7.516 -6.979,7.183 V 4.462 h 4.657 v 2.721 c 0,0.333 -0.065,0.577 -0.195,0.732 -0.129,0.154 -0.34,0.239 -0.632,0.256 L -3.295,8.183 V 8.329 H 0 V 8.183 L -0.146,8.171 C -0.437,8.154 -0.648,8.069 -0.778,7.916 -0.908,7.762 -0.973,7.518 -0.973,7.186 V 0.997 c 0,-0.333 0.065,-0.576 0.195,-0.729 0.13,-0.155 0.341,-0.24 0.632,-0.256 z" /></g><g
           transform="translate(362.9572,29.9423)"
           id="g60"><path
             id="path62"
             style="fill:#231f20;fill-opacity:1;fill-rule:nonzero;stroke:none"
             d="M 0,0 V -0.146 H -3.296 V 0 l 0.147,0.012 c 0.292,0.016 0.502,0.101 0.631,0.256 0.13,0.153 0.195,0.396 0.195,0.729 v 6.189 c 0,0.332 -0.065,0.576 -0.195,0.73 -0.129,0.153 -0.339,0.238 -0.631,0.255 L -3.296,8.183 V 8.329 L 0,8.329 V 8.183 L -0.146,8.171 C -0.438,8.154 -0.649,8.069 -0.779,7.916 -0.908,7.762 -0.974,7.518 -0.974,7.186 V 0.997 c 0,-0.333 0.066,-0.576 0.195,-0.729 0.13,-0.155 0.341,-0.24 0.633,-0.256 z" /></g><g
           transform="translate(382.5315,35.997)"
           id="g64"><path
             id="path66"
             style="fill:#231f20;fill-opacity:1;fill-rule:nonzero;stroke:none"
             d="m 0,0 -0.146,0.013 c 0,0.04 0.011,0.172 0.031,0.394 0.02,0.223 0.04,0.462 0.06,0.718 0.021,0.255 0.039,0.482 0.055,0.684 0.017,0.201 0.029,0.3 0.037,0.3 L 0.049,2.274 H 7.952 L 7.965,2.109 C 7.988,1.797 8.017,1.447 8.05,1.059 8.082,0.669 8.109,0.316 8.135,0 H 8.024 L 7.696,0.778 C 7.535,1.176 7.326,1.465 7.07,1.648 6.815,1.83 6.48,1.921 6.067,1.921 H 4.693 v -6.979 c 0,-0.333 0.066,-0.576 0.195,-0.729 0.13,-0.154 0.341,-0.239 0.633,-0.256 L 5.667,-6.055 V -6.201 H 2.371 v 0.146 l 0.147,0.012 c 0.292,0.017 0.502,0.102 0.631,0.256 0.129,0.153 0.195,0.396 0.195,0.729 V 1.921 H 1.958 C 1.561,1.921 1.235,1.83 0.979,1.648 0.725,1.465 0.507,1.176 0.328,0.778 Z" /></g><g
           transform="translate(415.5783,33.0546)"
           id="g68"><path
             id="path70"
             style="fill:#231f20;fill-opacity:1;fill-rule:nonzero;stroke:none"
             d="m 0,0 h -0.012 l -0.05,0.17 c -0.096,0.324 -0.267,0.559 -0.511,0.705 -0.244,0.146 -0.587,0.22 -1.026,0.22 h -1.513 v -4.013 h 2.024 c 0.487,0 0.902,0.111 1.243,0.335 0.342,0.223 0.642,0.577 0.903,1.063 L 1.24,-1.191 H 1.338 C 1.289,-1.482 1.234,-1.804 1.174,-2.151 1.112,-2.501 1.058,-2.816 1.01,-3.101 H 0.997 l -0.024,-0.17 h -6.408 v 0.147 l 0.146,0.012 c 0.292,0.016 0.502,0.101 0.633,0.256 0.129,0.153 0.194,0.396 0.194,0.728 v 6.189 c 0,0.333 -0.065,0.576 -0.194,0.73 -0.131,0.153 -0.341,0.239 -0.633,0.255 L -5.435,5.059 V 5.204 H 0.973 V 3.125 H 0.876 L 0.766,3.453 C 0.603,3.939 0.369,4.294 0.064,4.517 -0.24,4.739 -0.637,4.852 -1.124,4.852 H -3.101 V 1.411 h 1.514 c 0.44,0 0.779,0.064 1.02,0.194 0.239,0.13 0.412,0.34 0.518,0.632 L 0,2.383 H 0.109 V 0 Z" /></g><g
           transform="translate(238.9074,100.2079)"
           id="g72"><path
             id="path74"
             style="fill:#231f20;fill-opacity:1;fill-rule:nonzero;stroke:none"
             d="m 0,0 c -0.137,0.051 -0.273,0.042 -0.411,-0.026 -1.78,-0.942 -3.304,-2.115 -4.57,-3.518 -1.301,-1.352 -2.535,-2.756 -3.698,-4.211 -2.311,-2.945 -4.536,-5.932 -6.676,-8.961 -1.181,-1.712 -2.363,-3.425 -3.544,-5.136 -2.996,-4.4 -6.069,-8.714 -9.219,-12.942 -1.112,-1.473 -2.277,-2.859 -3.492,-4.16 -0.616,-0.65 -1.249,-1.223 -1.9,-1.72 -0.24,-0.188 -0.479,-0.334 -0.719,-0.437 l -1.207,-0.308 c -0.051,-0.017 -0.094,-0.034 -0.128,-0.051 -0.171,-0.034 -0.385,-0.094 -0.642,-0.18 l -0.051,-0.026 -0.026,-0.025 c 0.016,0.017 0.004,0.017 -0.039,0 -0.043,-0.017 -0.141,-0.086 -0.295,-0.206 -0.154,-0.102 -0.265,-0.252 -0.334,-0.449 -0.069,-0.197 -0.102,-0.39 -0.102,-0.578 0,-0.188 0.033,-0.316 0.102,-0.385 0.052,-0.119 0.137,-0.235 0.257,-0.347 0.12,-0.111 0.274,-0.201 0.462,-0.27 0.206,-0.016 0.351,-0.029 0.437,-0.038 0.085,-0.008 0.141,-0.013 0.167,-0.013 0.025,0 0.029,0.009 0.013,0.026 h 0.051 l 0.103,0.025 0.411,0.078 c 0.154,0.051 0.299,0.094 0.436,0.128 0.291,0.051 0.625,0.154 1.002,0.308 0.051,0.018 0.085,0.035 0.102,0.051 0.034,0.017 0.06,0.035 0.077,0.052 l 2.62,0.565 c 1.78,0.377 3.577,0.702 5.392,0.975 7.275,1.096 14.593,1.464 21.954,1.105 0.223,0 0.416,0.069 0.578,0.205 0.163,0.137 0.261,0.317 0.296,0.54 0.017,0.239 -0.048,0.445 -0.193,0.616 -0.146,0.171 -0.329,0.265 -0.552,0.282 -7.481,0.668 -14.945,0.496 -22.391,-0.513 -1.096,-0.154 -2.183,-0.334 -3.261,-0.539 -0.172,-0.018 -0.352,-0.043 -0.539,-0.078 1.163,1.267 2.259,2.568 3.286,3.903 3.15,4.228 6.138,8.526 8.962,12.891 1.215,1.831 2.43,3.654 3.646,5.469 2.02,3.098 4.116,6.128 6.291,9.09 0.274,0.36 0.556,0.727 0.848,1.104 1.849,2.739 4.022,4.965 6.522,6.677 l 0.077,0.051 c 0.12,0.068 0.197,0.167 0.231,0.295 0.034,0.129 0.025,0.261 -0.025,0.398 C 0.24,-0.146 0.138,-0.052 0,0" /></g><g
           transform="translate(248.1389,77.9833)"
           id="g76"><path
             id="path78"
             style="fill:#231f20;fill-opacity:1;fill-rule:nonzero;stroke:none"
             d="m 0,0 c -0.248,0.042 -0.466,0.004 -0.654,-0.115 -0.223,-0.155 -0.372,-0.347 -0.45,-0.578 -0.077,-0.231 -0.073,-0.441 0.013,-0.629 0.033,-0.069 0.076,-0.129 0.128,-0.18 -0.016,-0.12 -0.081,-0.248 -0.192,-0.385 -0.112,-0.137 -0.253,-0.282 -0.424,-0.437 -0.275,-0.239 -0.523,-0.509 -0.745,-0.808 -0.223,-0.3 -0.299,-0.621 -0.231,-0.964 0.205,-0.462 0.548,-0.625 1.027,-0.487 0.908,0.393 1.567,1.121 1.977,2.182 0.257,0.685 0.266,1.344 0.027,1.978 C 0.406,-0.184 0.248,-0.042 0,0" /></g><g
           transform="translate(340.7737,80.9238)"
           id="g80"><path
             id="path82"
             style="fill:#231f20;fill-opacity:1;fill-rule:nonzero;stroke:none"
             d="m 0,0 c -0.429,-0.446 -0.768,-0.817 -1.015,-1.117 -0.249,-0.3 -0.428,-0.535 -0.54,-0.706 -0.111,-0.172 -0.183,-0.308 -0.217,-0.411 -0.035,-0.103 -0.052,-0.197 -0.052,-0.283 -0.034,-0.376 0.064,-0.701 0.296,-0.976 0.23,-0.274 0.535,-0.436 0.911,-0.487 h 0.129 c 0.496,0 0.889,0.231 1.18,0.693 0.12,0.188 0.313,0.432 0.579,0.732 0.264,0.299 0.492,0.543 0.68,0.732 0.256,0.273 0.376,0.59 0.36,0.95 C 2.293,-0.514 2.156,-0.206 1.899,0.051 1.608,0.308 1.287,0.432 0.937,0.423 0.585,0.415 0.273,0.273 0,0" /></g><g
           transform="translate(301.1516,71.9365)"
           id="g84"><path
             id="path86"
             style="fill:#231f20;fill-opacity:1;fill-rule:nonzero;stroke:none"
             d="M 0,0 C 0.976,0.479 1.969,0.864 2.979,1.155 3.476,1.292 3.946,1.377 4.391,1.412 4.203,1.189 3.963,0.941 3.672,0.667 3.381,0.393 3.098,0.154 2.824,-0.052 1.969,-0.685 1.062,-1.224 0.103,-1.669 -0.856,-2.132 -1.84,-2.508 -2.85,-2.799 -3.363,-2.937 -3.869,-3.047 -4.365,-3.133 h -0.103 c -0.035,0 -0.069,-0.009 -0.102,-0.026 1.351,1.267 2.876,2.32 4.57,3.159 m 24.806,11.067 c 2.55,2.859 5.169,5.641 7.857,8.345 1.729,1.729 3.509,3.39 5.341,4.982 0.137,0.12 0.273,0.231 0.411,0.334 0.119,0.085 0.231,0.17 0.334,0.256 C 36.813,22.571 34.76,20.2 32.586,17.872 32.141,17.375 31.695,16.887 31.251,16.408 L 21.107,5.675 17.667,2.131 c 2.208,3.098 4.588,6.077 7.139,8.936 M 54.463,0 c 0.976,0.479 1.969,0.864 2.978,1.155 0.497,0.137 0.968,0.222 1.413,0.257 C 58.666,1.189 58.426,0.941 58.135,0.667 57.844,0.393 57.562,0.154 57.288,-0.052 56.432,-0.685 55.524,-1.224 54.565,-1.669 53.607,-2.132 52.623,-2.508 51.613,-2.799 51.1,-2.937 50.595,-3.047 50.099,-3.133 h -0.104 c -0.034,0 -0.068,-0.009 -0.102,-0.026 1.351,1.267 2.876,2.32 4.57,3.159 m 29.068,0.898 c -0.137,0.274 -0.343,0.505 -0.616,0.694 -0.514,0.222 -0.95,0.316 -1.31,0.283 -0.65,-0.052 -1.232,-0.172 -1.746,-0.36 H 79.808 C 77.719,0.761 75.802,-0.18 74.056,-1.31 c -0.617,-0.377 -1.215,-0.788 -1.797,-1.232 -0.292,-0.206 -0.583,-0.411 -0.873,-0.617 0.051,0.069 0.093,0.146 0.128,0.231 0.051,0.086 0.103,0.171 0.154,0.257 l 0.77,1.439 0.36,0.744 0.154,0.385 c 0.017,0.017 0.026,0.034 0.026,0.051 0.034,0.035 0.05,0.073 0.05,0.116 0,0.042 -0.029,0.094 -0.09,0.154 -0.059,0.06 -0.167,0.133 -0.32,0.218 -0.565,0.343 -1.19,0.565 -1.875,0.668 L 70.615,1.129 C 70.427,1.164 70.29,1.177 70.204,1.168 70.118,1.159 70.063,1.143 70.037,1.117 70.012,1.091 69.999,1.061 69.999,1.027 69.981,1.01 69.973,0.993 69.973,0.975 L 69.845,0.642 69.563,-0.025 68.946,-1.387 67.534,-4.083 c -0.326,-0.559 -0.638,-1.13 -0.961,-1.693 -0.01,-0.002 -0.031,10e-4 -0.041,-0.002 -0.069,-0.017 -0.129,-0.034 -0.179,-0.051 -0.035,-0.017 -0.074,-0.03 -0.116,-0.039 -0.043,-0.008 -0.099,-0.013 -0.168,-0.013 l -0.846,-0.23 -1.619,-0.463 -3.235,-0.924 c -2.156,-0.6 -4.331,-1.07 -6.522,-1.412 -1.062,-0.172 -2.145,-0.266 -3.248,-0.283 -1.104,-0.017 -2.034,0.205 -2.786,0.668 -0.548,0.496 -0.617,1.258 -0.206,2.285 0.222,0.599 0.539,1.164 0.951,1.695 v -0.051 c -0.087,-0.257 -0.104,-0.523 -0.052,-0.797 0.034,-0.171 0.081,-0.291 0.14,-0.359 0.061,-0.069 0.125,-0.107 0.194,-0.116 0.068,-0.008 0.128,-0.013 0.18,-0.013 h 0.077 c 0.187,0.018 0.367,0.035 0.539,0.052 0.325,0.034 0.633,0.085 0.924,0.154 0.017,0 0.026,0.008 0.026,0.026 0.616,0.136 1.207,0.299 1.771,0.487 1.13,0.412 2.217,0.908 3.261,1.49 1.045,0.582 2.021,1.266 2.928,2.054 0.223,0.222 0.445,0.428 0.668,0.617 0.342,0.273 0.672,0.594 0.988,0.962 0.317,0.369 0.595,0.877 0.835,1.528 0.085,0.223 0.072,0.467 -0.039,0.732 -0.111,0.265 -0.261,0.496 -0.449,0.694 -0.189,0.196 -0.377,0.294 -0.566,0.294 -0.427,0.12 -0.787,0.163 -1.078,0.129 H 58.777 C 58.126,3.252 57.51,3.124 56.928,2.953 55.799,2.593 54.711,2.148 53.667,1.618 51.544,0.573 49.67,-0.831 48.043,-2.594 47.962,-2.686 47.892,-2.785 47.814,-2.879 45.388,-4.002 42.949,-5.076 40.494,-6.086 37.807,-7.267 35.085,-8.209 32.329,-8.91 31.918,-9.013 31.477,-9.09 31.006,-9.142 30.535,-9.193 30.12,-9.206 29.761,-9.18 c -0.36,0.026 -0.582,0.098 -0.668,0.218 -0.069,0 -0.073,0.15 -0.012,0.45 0.06,0.299 0.17,0.658 0.333,1.078 0.163,0.419 0.373,0.809 0.63,1.168 0.735,1.182 1.565,2.328 2.49,3.441 l 1.387,1.644 0.719,0.821 c 0.051,0.103 0.128,0.189 0.231,0.257 0.103,0.068 0.184,0.163 0.243,0.282 0.061,0.12 0.039,0.309 -0.063,0.566 -0.257,0.581 -0.702,0.975 -1.336,1.181 h -0.026 c -0.273,0.068 -0.466,0.068 -0.578,0 C 33,1.857 32.919,1.763 32.868,1.643 32.816,1.541 32.739,1.446 32.637,1.361 L 31.918,0.514 30.531,-1.258 c -0.445,-0.577 -0.87,-1.174 -1.279,-1.787 -1.769,-1.247 -3.567,-2.454 -5.409,-3.606 -2.08,-1.301 -4.216,-2.423 -6.407,-3.364 -0.531,-0.223 -1.07,-0.41 -1.619,-0.565 -0.546,-0.154 -1.044,-0.205 -1.488,-0.154 -1.13,0.103 -1.798,0.531 -2.003,1.284 -0.154,0.925 -0.025,1.952 0.385,3.082 0.89,0.496 1.66,1.129 2.31,1.9 0.104,0.102 0.207,0.214 0.309,0.333 l 2.542,2.671 5.085,5.367 10.116,10.836 c 0.6,0.667 1.198,1.335 1.798,2.003 1.353,1.489 2.688,3.012 4.006,4.57 1.318,1.558 2.576,3.219 3.774,4.982 0.035,0.051 0.069,0.102 0.103,0.154 0.138,0.239 0.274,0.539 0.411,0.899 0.017,0.085 0.043,0.162 0.077,0.231 0.034,0.068 0.056,0.162 0.065,0.282 0.007,0.12 -0.004,0.326 -0.038,0.617 0,0.222 -0.1,0.423 -0.296,0.603 -0.198,0.18 -0.415,0.312 -0.655,0.398 -0.24,0.085 -0.436,0.111 -0.59,0.077 C 41.248,29.469 40.88,29.362 40.623,29.234 40.366,29.105 40.144,28.973 39.955,28.836 39.818,28.733 39.664,28.631 39.493,28.528 38.432,27.774 37.439,26.979 36.515,26.14 34.632,24.479 32.816,22.767 31.071,21.004 27.596,17.461 24.258,13.789 21.057,9.989 17.855,6.188 14.979,2.114 12.429,-2.234 12.291,-2.56 12.146,-2.876 11.992,-3.184 11.53,-4.033 11.149,-4.937 10.824,-5.876 10.802,-5.877 10.787,-5.881 10.762,-5.881 L 9.914,-6.111 8.297,-6.574 5.062,-7.498 c -2.158,-0.6 -4.332,-1.07 -6.523,-1.412 -1.061,-0.172 -2.144,-0.266 -3.248,-0.283 -1.104,-0.017 -2.033,0.205 -2.786,0.668 -0.548,0.496 -0.616,1.258 -0.205,2.285 0.221,0.599 0.539,1.164 0.95,1.695 v -0.051 c -0.087,-0.257 -0.104,-0.523 -0.052,-0.797 0.034,-0.171 0.081,-0.291 0.141,-0.359 0.06,-0.069 0.124,-0.107 0.193,-0.116 0.068,-0.008 0.128,-0.013 0.179,-0.013 h 0.078 c 0.188,0.018 0.367,0.035 0.539,0.052 0.324,0.034 0.633,0.085 0.924,0.154 0.018,0 0.025,0.008 0.025,0.026 0.618,0.136 1.207,0.299 1.773,0.487 1.13,0.412 2.217,0.908 3.261,1.49 1.044,0.582 2.019,1.266 2.927,2.054 0.223,0.222 0.446,0.428 0.667,0.617 0.343,0.273 0.672,0.594 0.99,0.962 C 5.211,0.33 5.489,0.838 5.729,1.489 5.814,1.712 5.802,1.956 5.69,2.221 5.579,2.486 5.43,2.717 5.241,2.915 5.053,3.111 4.864,3.209 4.676,3.209 4.248,3.329 3.889,3.372 3.598,3.338 H 3.47 C 2.818,3.252 2.202,3.124 1.62,2.953 0.49,2.593 -0.597,2.148 -1.641,1.618 -3.764,0.573 -5.638,-0.831 -7.265,-2.594 -7.586,-2.956 -7.868,-3.348 -8.13,-3.757 c -0.508,-0.418 -1.012,-0.847 -1.525,-1.25 -0.941,-0.788 -1.908,-1.541 -2.902,-2.26 -0.975,-0.736 -1.968,-1.429 -2.978,-2.08 -0.514,-0.342 -1.027,-0.651 -1.541,-0.924 -0.53,-0.309 -1.052,-0.565 -1.566,-0.771 -0.274,-0.12 -0.539,-0.214 -0.795,-0.282 -0.257,-0.068 -0.489,-0.103 -0.695,-0.103 -0.085,0 -0.154,0.009 -0.205,0.026 -0.034,0.017 -0.056,0.029 -0.064,0.038 -0.008,0.009 -0.022,0.013 -0.038,0.013 -0.018,0.035 -0.026,0.06 -0.026,0.077 -0.035,0.035 -0.052,0.095 -0.052,0.18 -0.034,0.189 -0.034,0.411 0,0.668 0.035,0.257 0.086,0.522 0.155,0.796 0.154,0.547 0.342,1.095 0.564,1.643 0.445,1.095 0.959,2.174 1.541,3.236 0.566,1.061 1.164,2.113 1.797,3.158 2.346,3.783 4.854,7.463 7.524,11.042 l 2.286,0.102 1.952,0.103 1.976,0.102 c 0.274,0.017 0.548,0.035 0.823,0.052 1.026,0.068 2.062,0.137 3.106,0.205 1.301,0.086 2.602,0.18 3.903,0.283 1.319,0.103 2.628,0.222 3.929,0.36 0.65,0.068 1.31,0.144 1.978,0.23 0.102,0 0.205,0.009 0.307,0.026 0.069,0.017 0.128,0.026 0.18,0.026 l 0.257,0.051 0.231,0.052 0.257,0.025 c 0.052,0.016 0.111,0.034 0.18,0.051 h 0.076 l 0.129,0.052 h 0.052 c 0.016,0 0.05,0.008 0.102,0.026 0.085,0.033 0.18,0.059 0.282,0.076 0.137,0.052 0.236,0.133 0.295,0.244 0.061,0.111 0.081,0.235 0.065,0.373 -0.034,0.154 -0.108,0.27 -0.218,0.346 -0.112,0.078 -0.244,0.107 -0.399,0.09 L 12.711,12.3 c -0.068,0 -0.128,-0.009 -0.18,-0.026 -0.016,0 -0.043,-0.009 -0.077,-0.025 h -0.025 -0.128 c -0.018,-0.018 -0.043,-0.026 -0.078,-0.026 h -0.128 l -0.257,-0.026 -0.232,-0.026 -0.23,-0.025 h -0.18 c -0.102,0 -0.206,-0.009 -0.308,-0.026 C 10.237,12.085 9.587,12.06 8.937,12.043 7.635,12.008 6.334,11.983 5.033,11.966 3.732,11.932 2.431,11.906 1.13,11.889 l -3.929,-0.052 -4.365,-0.051 c 1.164,1.523 2.337,3.038 3.518,4.545 0.77,0.959 1.541,1.908 2.311,2.85 l 1.182,1.438 0.59,0.693 c 0.102,0.12 0.183,0.253 0.244,0.398 0.059,0.146 0.064,0.338 0.012,0.578 v 0.026 c -0.188,0.65 -0.632,1.01 -1.335,1.078 -0.24,0 -0.428,-0.043 -0.565,-0.128 -0.137,-0.086 -0.248,-0.189 -0.333,-0.308 l -0.591,-0.719 -1.156,-1.464 c -0.77,-0.959 -1.54,-1.935 -2.311,-2.927 -1.506,-1.952 -2.987,-3.929 -4.442,-5.931 -0.034,-0.035 -0.06,-0.061 -0.077,-0.078 -0.018,-0.034 -0.034,-0.06 -0.051,-0.077 l -0.463,-0.025 -3.929,-0.051 -1.951,-0.026 -1.002,-0.026 H -18 h -0.026 -0.102 c -0.035,0 -0.069,-0.017 -0.103,-0.051 -0.052,-0.035 -0.094,-0.077 -0.128,-0.128 -0.036,-0.069 -0.078,-0.155 -0.129,-0.257 -0.171,-0.549 -0.154,-1.113 0.051,-1.696 l 0.026,-0.025 c 0.034,-0.102 0.077,-0.18 0.128,-0.231 0.034,-0.051 0.078,-0.094 0.129,-0.128 0.034,-0.034 0.068,-0.052 0.102,-0.052 h 0.104 0.025 l 0.488,0.026 0.975,0.052 1.978,0.076 2.593,0.103 c -0.822,-1.164 -1.627,-2.337 -2.414,-3.518 -0.684,-1.027 -1.36,-2.072 -2.028,-3.133 -0.65,-1.062 -1.284,-2.131 -1.9,-3.209 -0.634,-1.079 -1.233,-2.175 -1.798,-3.287 -0.264,-0.528 -0.514,-1.065 -0.755,-1.607 -0.026,0.019 -0.037,0.052 -0.067,0.066 -0.102,0.052 -0.213,0.06 -0.334,0.026 -1.146,-0.446 -2.301,-0.865 -3.466,-1.258 -1.164,-0.411 -2.336,-0.788 -3.518,-1.13 -1.181,-0.36 -2.362,-0.667 -3.544,-0.924 -0.599,-0.138 -1.189,-0.249 -1.77,-0.335 -0.601,-0.086 -1.191,-0.128 -1.773,-0.128 -0.291,0 -0.565,0.017 -0.822,0.052 -0.274,0.033 -0.513,0.094 -0.719,0.179 -0.102,0.052 -0.18,0.103 -0.23,0.154 -0.07,0.051 -0.12,0.111 -0.155,0.18 -0.034,0.051 -0.05,0.112 -0.05,0.18 -0.018,0.085 -0.018,0.179 0,0.282 0.016,0.222 0.076,0.463 0.178,0.719 0.12,0.24 0.249,0.479 0.386,0.719 0.308,0.48 0.65,0.95 1.027,1.412 0.342,0.411 0.694,0.805 1.053,1.182 0.033,0.034 0.068,0.059 0.103,0.077 0.051,0.051 0.111,0.102 0.179,0.154 0.702,0.565 1.387,1.138 2.054,1.72 0.343,0.292 0.677,0.591 1.002,0.899 0.171,0.154 0.343,0.316 0.514,0.488 0.086,0.068 0.171,0.145 0.257,0.231 0.034,0.051 0.077,0.103 0.127,0.154 0.017,0.017 0.043,0.042 0.078,0.077 0.016,0.017 0.034,0.043 0.051,0.077 l 0.026,0.052 c 0.016,0.016 0.029,0.029 0.038,0.038 0.009,0.008 0.013,0.021 0.013,0.038 0.017,0.017 0.026,0.043 0.026,0.078 0.119,0.273 0.085,0.547 -0.103,0.821 -0.137,0.171 -0.312,0.265 -0.526,0.282 -0.215,0.017 -0.415,-0.042 -0.604,-0.179 -0.975,-0.788 -1.918,-1.618 -2.824,-2.491 -0.121,-0.103 -0.231,-0.205 -0.335,-0.308 -0.273,-0.222 -0.556,-0.445 -0.846,-0.668 -1.371,-1.095 -2.783,-2.123 -4.238,-3.081 -0.735,-0.479 -1.48,-0.924 -2.233,-1.336 -0.754,-0.427 -1.516,-0.804 -2.285,-1.129 -0.788,-0.325 -1.559,-0.539 -2.312,-0.642 -0.377,-0.051 -0.719,-0.043 -1.027,0.025 -0.291,0.069 -0.523,0.189 -0.693,0.36 -0.189,0.188 -0.334,0.445 -0.437,0.771 -0.051,0.171 -0.094,0.341 -0.128,0.513 0,0.051 -0.009,0.102 -0.026,0.154 v 0.103 0.102 0.155 c 0,0.668 0.222,1.292 0.668,1.874 0.462,0.582 1.044,1.079 1.746,1.489 0.684,0.428 1.421,0.779 2.209,1.053 1.592,0.565 3.234,0.925 4.929,1.079 0.857,0.085 1.704,0.11 2.542,0.077 0.412,-0.017 0.822,-0.051 1.233,-0.103 0.034,0 0.068,-0.009 0.102,-0.026 0.069,0 0.129,-0.008 0.18,-0.025 0.103,-0.018 0.206,-0.026 0.309,-0.026 0.102,0 0.205,0.017 0.307,0.051 0.12,0.017 0.241,0.06 0.361,0.129 l 0.076,0.051 c 0.017,0.017 0.034,0.025 0.052,0.025 0.205,0.155 0.329,0.352 0.372,0.592 0.043,0.239 -0.013,0.461 -0.167,0.667 -0.085,0.12 -0.18,0.222 -0.283,0.308 -0.119,0.068 -0.24,0.119 -0.359,0.154 -0.103,0.051 -0.214,0.077 -0.334,0.077 -0.086,0.017 -0.171,0.034 -0.257,0.051 h -0.102 c -0.48,0.069 -0.951,0.103 -1.412,0.103 -0.942,0.034 -1.874,0 -2.799,-0.103 -0.925,-0.085 -1.841,-0.23 -2.747,-0.436 -0.909,-0.206 -1.799,-0.471 -2.671,-0.796 -0.891,-0.326 -1.746,-0.736 -2.569,-1.232 -0.411,-0.257 -0.812,-0.549 -1.207,-0.874 -0.376,-0.325 -0.727,-0.701 -1.052,-1.129 -0.308,-0.429 -0.556,-0.899 -0.744,-1.413 -0.189,-0.531 -0.283,-1.078 -0.283,-1.643 v -0.283 c 0.017,-0.034 0.026,-0.068 0.026,-0.103 v -0.128 c 0.016,-0.103 0.034,-0.197 0.05,-0.282 0.052,-0.257 0.121,-0.523 0.207,-0.796 0.154,-0.531 0.453,-1.027 0.898,-1.489 0.223,-0.223 0.479,-0.412 0.77,-0.565 0.274,-0.138 0.556,-0.231 0.848,-0.283 0.565,-0.119 1.104,-0.137 1.617,-0.051 0.514,0.068 1.002,0.171 1.464,0.308 0.462,0.137 0.907,0.299 1.335,0.488 0.857,0.376 1.678,0.787 2.466,1.232 0.787,0.462 1.557,0.941 2.31,1.438 0.069,0.052 0.146,0.103 0.232,0.154 0.034,0.034 0.06,0.06 0.076,0.077 v -0.025 c -0.137,-0.326 -0.23,-0.685 -0.282,-1.079 -0.017,-0.205 -0.009,-0.419 0.026,-0.642 0.034,-0.24 0.112,-0.462 0.231,-0.668 0.137,-0.222 0.3,-0.401 0.488,-0.539 0.171,-0.137 0.351,-0.24 0.539,-0.308 0.377,-0.154 0.735,-0.248 1.079,-0.282 0.342,-0.035 0.685,-0.051 1.028,-0.051 0.649,0.034 1.291,0.102 1.924,0.205 0.634,0.119 1.25,0.248 1.85,0.385 1.232,0.308 2.439,0.659 3.62,1.053 1.181,0.394 2.354,0.812 3.519,1.258 1.076,0.396 2.134,0.819 3.181,1.258 -0.146,-0.349 -0.298,-0.696 -0.434,-1.052 -0.223,-0.599 -0.411,-1.224 -0.566,-1.875 -0.085,-0.326 -0.144,-0.667 -0.179,-1.027 -0.051,-0.36 -0.042,-0.753 0.025,-1.181 0.052,-0.223 0.129,-0.445 0.231,-0.668 0.121,-0.257 0.3,-0.479 0.54,-0.667 0.24,-0.171 0.488,-0.283 0.745,-0.334 0.239,-0.052 0.47,-0.077 0.693,-0.077 0.411,0.017 0.787,0.085 1.13,0.205 0.325,0.103 0.641,0.222 0.95,0.359 0.599,0.274 1.172,0.583 1.721,0.925 0.547,0.325 1.078,0.667 1.591,1.027 1.027,0.719 2.029,1.472 3.004,2.26 0.8,0.642 1.591,1.314 2.378,1.993 -0.091,-0.412 -0.13,-0.86 -0.102,-1.351 0.043,-0.754 0.389,-1.396 1.04,-1.926 1.044,-0.583 2.058,-0.886 3.043,-0.911 0.984,-0.027 1.955,0.038 2.914,0.192 0.393,0.051 0.779,0.093 1.155,0.128 2.26,0.411 4.477,0.933 6.651,1.566 l 3.236,0.951 1.617,0.513 0.209,0.054 c -0.151,-0.863 -0.145,-1.796 0.02,-2.801 0.24,-0.873 0.732,-1.528 1.477,-1.965 0.744,-0.436 1.467,-0.671 2.169,-0.706 0.72,-0.034 1.365,0.03 1.939,0.193 0.573,0.163 1.125,0.356 1.656,0.578 0.137,0.068 0.274,0.128 0.411,0.179 2.311,1.096 4.484,2.354 6.522,3.775 1.011,0.705 2.011,1.427 3.001,2.166 -0.247,-0.498 -0.475,-1.022 -0.664,-1.601 -0.12,-0.394 -0.184,-0.882 -0.193,-1.464 -0.009,-0.582 0.235,-1.164 0.732,-1.746 0.531,-0.411 1.039,-0.651 1.528,-0.719 0.487,-0.068 0.928,-0.085 1.322,-0.051 h 0.077 c 0.839,0.068 1.626,0.205 2.362,0.411 2.808,0.821 5.496,1.852 8.063,3.094 1.918,0.926 3.796,1.901 5.656,2.899 -0.124,-0.27 -0.238,-0.546 -0.341,-0.832 -0.239,-0.565 -0.338,-1.225 -0.295,-1.977 0.043,-0.754 0.39,-1.396 1.04,-1.926 1.044,-0.583 2.059,-0.886 3.043,-0.911 0.985,-0.027 1.956,0.038 2.915,0.192 0.393,0.051 0.779,0.093 1.156,0.128 2.26,0.411 4.476,0.933 6.65,1.566 l 3.235,0.951 1.618,0.513 0.235,0.061 C 65.363,-7.913 64.926,-8.66 64.504,-9.424 V -9.45 l -0.025,-0.026 c -0.155,-0.239 -0.21,-0.487 -0.168,-0.744 0.043,-0.257 0.175,-0.471 0.398,-0.642 0.257,-0.188 0.531,-0.265 0.822,-0.231 0.291,0.034 0.531,0.162 0.719,0.385 l 0.103,0.128 c 0.016,0.017 0.025,0.035 0.025,0.052 0.017,0.016 0.034,0.033 0.052,0.051 1.009,1.455 2.302,2.808 3.878,4.057 1.54,1.25 3.158,2.405 4.852,3.467 1.712,1.096 3.475,1.986 5.289,2.671 0.463,0.154 0.874,0.239 1.234,0.257 h 0.025 c -0.034,-0.224 -0.149,-0.527 -0.347,-0.912 -0.197,-0.386 -0.415,-0.758 -0.654,-1.117 l -0.026,-0.052 c -0.018,-0.017 -0.035,-0.035 -0.051,-0.051 -0.12,-0.223 -0.142,-0.454 -0.065,-0.694 0.078,-0.239 0.227,-0.419 0.45,-0.539 0.256,-0.12 0.505,-0.145 0.745,-0.077 0.239,0.068 0.428,0.214 0.564,0.437 0.12,0.205 0.248,0.402 0.385,0.591 0.24,0.341 0.454,0.714 0.643,1.116 0.188,0.403 0.307,0.903 0.359,1.502 0.018,0.206 -0.043,0.446 -0.18,0.719" /></g></g></g></g></svg>